<svg width="32" height="32" viewBox="0 0 32 32" fill="none" xmlns="http://www.w3.org/2000/svg">
<path d="M12.8002 3.20001C12.3758 3.20001 11.9689 3.36858 11.6688 3.66864C11.3688 3.9687 11.2002 4.37567 11.2002 4.80001C11.2002 5.22436 11.3688 5.63132 11.6688 5.93138C11.9689 6.23144 12.3758 6.40001 12.8002 6.40001H16.0002C16.4245 6.40001 16.8315 6.23144 17.1316 5.93138C17.4316 5.63132 17.6002 5.22436 17.6002 4.80001C17.6002 4.37567 17.4316 3.9687 17.1316 3.66864C16.8315 3.36858 16.4245 3.20001 16.0002 3.20001H12.8002Z" fill="#BD5008"/>
<path d="M4.7998 7.99999C4.7998 7.1513 5.13695 6.33736 5.73706 5.73725C6.33718 5.13713 7.15111 4.79999 7.9998 4.79999C7.9998 6.07303 8.50552 7.29393 9.40569 8.1941C10.3059 9.09427 11.5268 9.59999 12.7998 9.59999H15.9998C17.2728 9.59999 18.4937 9.09427 19.3939 8.1941C20.2941 7.29393 20.7998 6.07303 20.7998 4.79999C21.6485 4.79999 22.4624 5.13713 23.0625 5.73725C23.6627 6.33736 23.9998 7.1513 23.9998 7.99999V17.6H16.6622L18.731 15.5312C19.0225 15.2294 19.1837 14.8253 19.1801 14.4057C19.1764 13.9862 19.0082 13.5849 18.7115 13.2883C18.4149 12.9916 18.0136 12.8234 17.594 12.8197C17.1745 12.8161 16.7704 12.9773 16.4686 13.2688L11.6686 18.0688C11.3687 18.3688 11.2001 18.7757 11.2001 19.2C11.2001 19.6243 11.3687 20.0311 11.6686 20.3312L16.4686 25.1312C16.7704 25.4226 17.1745 25.5839 17.594 25.5803C18.0136 25.5766 18.4149 25.4084 18.7115 25.1117C19.0082 24.815 19.1764 24.4137 19.1801 23.9942C19.1837 23.5747 19.0225 23.1706 18.731 22.8688L16.6622 20.8H23.9998V25.6C23.9998 26.4487 23.6627 27.2626 23.0625 27.8627C22.4624 28.4628 21.6485 28.8 20.7998 28.8H7.9998C7.15111 28.8 6.33718 28.4628 5.73706 27.8627C5.13695 27.2626 4.7998 26.4487 4.7998 25.6V7.99999ZM23.9998 17.6H27.1998C27.6242 17.6 28.0311 17.7686 28.3312 18.0686C28.6312 18.3687 28.7998 18.7756 28.7998 19.2C28.7998 19.6243 28.6312 20.0313 28.3312 20.3314C28.0311 20.6314 27.6242 20.8 27.1998 20.8H23.9998V17.6Z" fill="#BD5008"/>
</svg>
