<svg width="32" height="32" viewBox="0 0 32 32" fill="none" xmlns="http://www.w3.org/2000/svg">
<circle cx="16" cy="16" r="16" fill="white"/>
<path d="M16 1C7.71625 1 1 7.71625 1 16C1 24.2837 7.71625 31 16 31C24.2837 31 31 24.2837 31 16C31 7.71625 24.2837 1 16 1ZM13.5 21H11V13.5H13.5V21ZM12.25 12.3863C11.4913 12.3863 10.875 11.7662 10.875 11C10.875 10.235 11.49 9.61375 12.25 9.61375C13.01 9.61375 13.625 10.235 13.625 11C13.625 11.7662 13.0087 12.3863 12.25 12.3863ZM22.25 21H19.7525V17.4237C19.7525 15.0725 17.25 15.2713 17.25 17.4237V21H14.75V13.5H17.25V14.8663C18.34 12.8463 22.25 12.6962 22.25 16.8012V21Z" fill="#2867B2"/>
</svg>
