<svg width="32" height="32" viewBox="0 0 32 32" fill="none" xmlns="http://www.w3.org/2000/svg">
<rect width="32" height="32" rx="16" fill="white"/>
<path fill-rule="evenodd" clip-rule="evenodd" d="M16 1C7.7175 1 1 7.715 1 16C1 24.2837 7.7175 31 16 31C24.2837 31 31 24.2837 31 16C31 7.715 24.2837 1 16 1ZM20.03 23.3388C20.265 23.505 20.5675 23.5462 20.8375 23.445C21.1062 23.3425 21.305 23.1113 21.365 22.8313C21.9987 19.8538 23.5362 12.3162 24.1125 9.60875C24.1562 9.40375 24.0838 9.19125 23.9238 9.055C23.7625 8.91875 23.54 8.88 23.3425 8.9525C20.285 10.085 10.8687 13.6175 7.02 15.0412C6.77625 15.1325 6.6175 15.3662 6.625 15.625C6.63375 15.8825 6.8075 16.1063 7.0575 16.1813C8.78375 16.6975 11.0487 17.4163 11.0487 17.4163C11.0487 17.4163 12.1075 20.6137 12.6587 22.2387C12.7287 22.4437 12.8887 22.6037 13.0987 22.6587C13.31 22.7137 13.5337 22.6562 13.6912 22.5075C14.5775 21.6712 15.9475 20.3775 15.9475 20.3775C15.9475 20.3775 18.5525 22.2863 20.03 23.3388V23.3388ZM12.0012 17.0113L13.2263 21.05L13.4987 18.4925C13.4987 18.4925 18.2275 14.2262 20.925 11.795C21.0037 11.7237 21.0137 11.6038 20.9487 11.52C20.8837 11.4363 20.7637 11.4162 20.675 11.4737C17.55 13.4687 12.0012 17.0113 12.0012 17.0113V17.0113Z" fill="#0088CC"/>
</svg>
