<svg width="32" height="32" viewBox="0 0 32 32" fill="none" xmlns="http://www.w3.org/2000/svg">
<rect width="32" height="32" rx="16" fill="white"/>
<path d="M16 1C7.71625 1 1 7.71625 1 16C1 24.2837 7.71625 31 16 31C24.2837 31 31 24.2837 31 16C31 7.71625 24.2837 1 16 1ZM23.5825 13.0563C23.8112 18.1063 20.045 23.7362 13.3775 23.7362C11.35 23.7362 9.46375 23.1413 7.875 22.1225C9.78 22.3475 11.6812 21.8175 13.19 20.6362C11.62 20.6075 10.2937 19.5687 9.835 18.1425C10.3987 18.25 10.9538 18.2187 11.4575 18.0812C9.73125 17.7337 8.53875 16.1788 8.5775 14.515C9.0625 14.7838 9.615 14.945 10.2037 14.9637C8.605 13.895 8.1525 11.7837 9.0925 10.17C10.8625 12.3425 13.5087 13.7712 16.4925 13.9212C15.9688 11.6762 17.6725 9.5125 19.9912 9.5125C21.0225 9.5125 21.9562 9.94875 22.6112 10.6463C23.4287 10.4863 24.1988 10.1862 24.8913 9.775C24.6225 10.6137 24.0538 11.3163 23.3125 11.7613C24.0388 11.6738 24.7313 11.4813 25.3738 11.195C24.8938 11.9175 24.2863 12.55 23.5825 13.0563V13.0563Z" fill="#1DA1F2"/>
</svg>
