<svg width="30" height="30" viewBox="0 0 30 30" fill="none" xmlns="http://www.w3.org/2000/svg">
<path fill-rule="evenodd" clip-rule="evenodd" d="M15 0C6.7175 0 0 6.715 0 15C0 23.2838 6.7175 30 15 30C23.2838 30 30 23.2838 30 15C30 6.715 23.2838 0 15 0ZM23.7175 21.9462V21.6525L22.3525 20.3125C22.2325 20.2213 22.1725 20.07 22.1975 19.9212V10.0787C22.1725 9.93 22.2325 9.77875 22.3525 9.6875L23.75 8.3475V8.05375H18.9137L15.4663 16.6537L11.5437 8.05375H6.47V8.3475L8.105 10.3162C8.265 10.46 8.3475 10.6725 8.325 10.8875V18.6225C8.3725 18.9012 8.285 19.1863 8.08875 19.39L6.25 21.62V21.9137H11.4625V21.62L9.62375 19.39C9.42625 19.1863 9.3325 18.9037 9.37125 18.6225V11.9325L13.9462 21.9137H14.4775L18.4062 11.9325V19.8888C18.4062 20.1012 18.4062 20.1413 18.2675 20.28L16.855 21.6525V21.9462H23.7175Z" fill="white"/>
</svg>
