<svg width="520" height="405" viewBox="0 0 520 405" fill="none" xmlns="http://www.w3.org/2000/svg">
<g clip-path="url(#clip0)">
<path d="M408.056 150.638C386.187 64.6423 310.621 2.56562 221.923 0.0757797C175.031 -1.24054 125.688 14.3114 89.7626 68.7333C25.5418 166.018 93.7091 233.245 141.234 265.19C164.194 280.655 184.882 299.249 202.699 320.435C234.801 358.529 296.556 405.865 370.104 331.696C423.412 277.939 422.623 207.919 408.056 150.638Z" fill="#F2F2F2"/>
<path d="M520 169.786C520 192.105 501.907 227.726 479.588 227.726C457.269 227.726 439.176 192.105 439.176 169.786C439.176 159.068 443.434 148.789 451.012 141.21C458.591 133.632 468.87 129.374 479.588 129.374C490.306 129.374 500.585 133.632 508.164 141.21C515.742 148.789 520 159.068 520 169.786Z" fill="#FF6584"/>
<path d="M481.085 229.163C476.006 230.912 474.79 237.837 476.537 242.916C478.284 247.995 481.984 252.208 483.845 257.246C484.695 259.787 485.304 262.402 485.666 265.057C486.73 271.377 487.796 277.809 486.977 284.165C486.2 290.195 483.757 295.88 481.031 301.315C475.753 311.837 469.332 321.747 461.885 330.865" stroke="#2F2E41" stroke-width="2"/>
<path d="M483.483 231.621C480.886 229.955 478.29 229.955 475.693 231.621V223.831H483.483V231.621Z" fill="#FF6584"/>
<path d="M475.713 227.561C476.924 228.174 478.262 228.491 479.619 228.485C480.976 228.479 482.312 228.152 483.517 227.529" stroke="#2F2E41" stroke-width="2"/>
<path opacity="0.4" d="M496.386 162.97C501.092 162.97 504.906 158.392 504.906 152.745C504.906 147.098 501.092 142.52 496.386 142.52C491.68 142.52 487.865 147.098 487.865 152.745C487.865 158.392 491.68 162.97 496.386 162.97Z" fill="white"/>
<path d="M0 163.456C0 185.775 18.0931 221.396 40.412 221.396C62.7309 221.396 80.824 185.775 80.824 163.456C80.824 152.738 76.5663 142.46 68.9876 134.881C61.4089 127.302 51.1299 123.044 40.412 123.044C29.6941 123.044 19.4151 127.302 11.8364 134.881C4.25768 142.46 0 152.738 0 163.456Z" fill="#FF6584"/>
<path d="M38.9153 222.833C43.9938 224.582 45.2096 231.507 43.4628 236.587C41.716 241.666 38.0163 245.879 36.1548 250.917C35.3054 253.458 34.6957 256.073 34.3336 258.727C33.2701 265.048 32.2038 271.479 33.0232 277.836C33.8005 283.866 36.2435 289.55 38.969 294.985C44.2475 305.508 50.6681 315.417 58.1149 324.535" stroke="#2F2E41" stroke-width="2"/>
<path d="M36.5168 225.292C39.1136 223.625 41.7104 223.625 44.3071 225.292V217.501H36.5168V225.292Z" fill="#FF6584"/>
<path d="M44.2867 221.231C43.0762 221.844 41.7375 222.161 40.3808 222.155C39.024 222.15 37.688 221.822 36.4825 221.199" stroke="#2F2E41" stroke-width="2"/>
<path opacity="0.4" d="M23.6142 156.64C28.32 156.64 32.1348 152.062 32.1348 146.415C32.1348 140.768 28.32 136.19 23.6142 136.19C18.9084 136.19 15.0936 140.768 15.0936 146.415C15.0936 152.062 18.9084 156.64 23.6142 156.64Z" fill="white"/>
<path d="M490.787 341.172C490.787 364.163 382.664 404.954 249.288 404.954C115.913 404.954 20.4495 322.29 20.4495 299.299C20.4495 276.308 115.913 321.696 249.288 321.696C382.664 321.696 490.787 318.181 490.787 341.172Z" fill="#3F3D56"/>
<path opacity="0.1" d="M490.787 341.172C490.787 364.163 382.664 404.954 249.288 404.954C115.913 404.954 20.4495 322.29 20.4495 299.299C20.4495 276.308 115.913 321.696 249.288 321.696C382.664 321.696 490.787 318.181 490.787 341.172Z" fill="black"/>
<path d="M490.787 340.928C490.787 363.919 382.664 382.557 249.288 382.557C115.913 382.557 20.4495 322.29 20.4495 299.299C20.4495 276.308 115.913 299.299 249.288 299.299C382.664 299.299 490.787 317.937 490.787 340.928Z" fill="#3F3D56"/>
<path d="M212.377 276.138L207.487 307.363C207.487 307.363 183.41 320.154 200.339 320.53C217.268 320.907 297.023 320.53 297.023 320.53C297.023 320.53 312.448 320.53 287.995 306.987L283.104 274.257L212.377 276.138Z" fill="#2F2E41"/>
<path opacity="0.1" d="M196.933 320.192C200.778 316.771 207.487 313.206 207.487 313.206L212.377 281.981L283.104 282.047L287.995 312.83C293.697 315.988 297.229 318.409 299.296 320.266C302.437 319.55 305.869 316.887 287.995 306.987L283.104 274.257L212.377 276.138L207.487 307.363C207.487 307.363 187.255 318.113 196.933 320.192Z" fill="black"/>
<path d="M395.484 58.5037H99.2449C93.0574 58.5037 88.0415 63.5197 88.0415 69.7071V269.261C88.0415 275.449 93.0574 280.465 99.2449 280.465H395.484C401.671 280.465 406.687 275.449 406.687 269.261V69.7071C406.687 63.5197 401.671 58.5037 395.484 58.5037Z" fill="#2F2E41"/>
<path d="M395.965 70.3542H98.7634V236.637H395.965V70.3542Z" fill="#3F3D56"/>
<path d="M247.364 66.9683C248.403 66.9683 249.245 66.1262 249.245 65.0873C249.245 64.0484 248.403 63.2063 247.364 63.2063C246.325 63.2063 245.483 64.0484 245.483 65.0873C245.483 66.1262 246.325 66.9683 247.364 66.9683Z" fill="#F2F2F2"/>
<path d="M406.687 249.804V269.261C406.687 270.732 406.398 272.189 405.835 273.549C405.272 274.908 404.447 276.143 403.406 277.184C402.366 278.224 401.131 279.049 399.771 279.612C398.412 280.175 396.955 280.465 395.484 280.465H99.245C97.7737 280.465 96.3168 280.175 94.9574 279.612C93.5981 279.049 92.363 278.224 91.3226 277.184C90.2822 276.143 89.457 274.908 88.8941 273.549C88.3311 272.189 88.0414 270.732 88.0416 269.261V249.804H406.687Z" fill="#2F2E41"/>
<path d="M330.506 340.845V344.608H128.107V341.598L128.386 340.845L133.374 327.302H326.367L330.506 340.845Z" fill="#2F2E41"/>
<path d="M408.395 337.162C408.026 338.739 406.634 340.402 403.489 341.974C392.203 347.617 369.255 340.469 369.255 340.469C369.255 340.469 351.573 337.46 351.573 329.559C352.07 329.219 352.587 328.912 353.123 328.638C357.868 326.127 373.601 319.933 401.497 328.9C403.552 329.545 405.388 330.748 406.8 332.375C407.93 333.698 408.816 335.377 408.395 337.162Z" fill="#2F2E41"/>
<path opacity="0.1" d="M408.395 337.162C394.581 342.456 382.268 342.851 369.631 334.074C363.258 329.65 357.468 328.555 353.123 328.638C357.868 326.127 373.601 319.933 401.497 328.9C403.552 329.545 405.388 330.748 406.8 332.375C407.93 333.698 408.816 335.377 408.395 337.162Z" fill="black"/>
<path d="M391.075 334.074C393.776 334.074 395.965 333.4 395.965 332.569C395.965 331.738 393.776 331.064 391.075 331.064C388.374 331.064 386.184 331.738 386.184 332.569C386.184 333.4 388.374 334.074 391.075 334.074Z" fill="#F2F2F2"/>
<path d="M247.364 272.376C251.312 272.376 254.512 269.176 254.512 265.228C254.512 261.281 251.312 258.08 247.364 258.08C243.417 258.08 240.216 261.281 240.216 265.228C240.216 269.176 243.417 272.376 247.364 272.376Z" fill="#F2F2F2"/>
<path opacity="0.1" d="M330.506 340.845V344.608H128.107V341.598L128.386 340.845H330.506Z" fill="black"/>
<path d="M424.118 148.339C419.04 150.088 417.824 157.013 419.571 162.092C421.318 167.171 425.017 171.384 426.879 176.423C427.728 178.963 428.338 181.578 428.7 184.233C429.764 190.553 430.83 196.985 430.011 203.341C429.233 209.371 426.79 215.056 424.065 220.491C418.786 231.013 412.366 240.923 404.919 250.041" stroke="#2F2E41" stroke-width="2"/>
<path d="M463.034 88.962C463.034 111.281 444.941 146.902 422.622 146.902C400.303 146.902 382.21 111.281 382.21 88.962C382.21 78.2441 386.467 67.9651 394.046 60.3864C401.625 52.8077 411.904 48.55 422.622 48.55C433.34 48.55 443.619 52.8077 451.197 60.3864C458.776 67.9651 463.034 78.2441 463.034 88.962Z" fill="#F9A826"/>
<path d="M426.517 150.797C423.92 149.131 421.323 149.131 418.727 150.797V143.007H426.517V150.797Z" fill="#F9A826"/>
<path d="M418.747 146.737C419.958 147.35 421.296 147.667 422.653 147.661C424.01 147.655 425.346 147.328 426.551 146.705" stroke="#2F2E41" stroke-width="2"/>
<path opacity="0.4" d="M439.42 82.1455C444.125 82.1455 447.94 77.5678 447.94 71.9208C447.94 66.2739 444.125 61.6961 439.42 61.6961C434.714 61.6961 430.899 66.2739 430.899 71.9208C430.899 77.5678 434.714 82.1455 439.42 82.1455Z" fill="white"/>
<path d="M293.891 140.493V182.632L282.751 205.106V205.109L282.398 205.818L252.907 203.871L241.571 203.121L215.259 201.383V150.978L241.571 151.72L253.337 152.052L283.104 152.893L293.891 140.493Z" fill="#F9A826"/>
<path opacity="0.1" d="M293.891 142.98V182.632L291.169 188.122V188.124L288.378 193.752V193.754L282.751 205.106L283.381 162.968L283.508 154.468L288.859 148.548V148.546L291.191 145.966L293.891 142.98Z" fill="black"/>
<path d="M295.403 129.304V144.022L293.891 146.431L291.189 150.736L288.796 154.549L283.508 162.974L283.381 162.968L212.94 159.345V144.828L213.118 144.637L221.528 135.533L224.572 132.239L230.078 126.279L295.403 129.304Z" fill="#F9A826"/>
<path opacity="0.1" d="M283.508 148.458V162.974L212.94 159.345V144.828L213.118 144.637L283.508 148.458Z" fill="black"/>
<path opacity="0.15" d="M295.403 129.304V144.022L283.508 162.974V148.458L295.403 129.304Z" fill="black"/>
<path d="M291.198 136.076L291.191 145.966L291.189 150.736L291.169 188.122V188.124L288.378 193.752L288.796 154.549L288.859 148.548V148.546L288.954 139.689L221.528 135.534L224.572 132.239L291.198 136.076Z" fill="#2F2E41"/>
<path d="M258.104 136.562L253.379 146.822L253.337 152.052L252.907 203.871L241.571 203.121V146.139L247.619 136.562H258.104Z" fill="#2F2E41"/>
<path d="M242.545 137.252C239.815 138.161 236.882 138.264 234.095 137.549C233.553 137.444 233.044 137.208 232.613 136.862C232.15 136.35 231.833 135.722 231.696 135.045C231.204 133.647 230.931 132.18 230.887 130.698C230.921 129.218 231.487 127.673 232.695 126.816C232.94 126.668 233.17 126.495 233.381 126.301C233.633 125.983 233.814 125.615 233.913 125.221C234.739 122.757 236.34 120.156 238.909 119.761C241.278 119.397 243.435 121.052 245.261 122.606L249.269 126.017C249.713 124.821 250.509 123.788 251.551 123.054C252.594 122.319 253.834 121.916 255.109 121.899C256.384 121.881 257.635 122.25 258.697 122.956C259.758 123.663 260.582 124.673 261.059 125.856C263.487 123.12 266.548 121.02 269.974 119.739C270.734 119.456 271.625 119.225 272.317 119.647C272.745 119.962 273.069 120.398 273.25 120.897C274.341 123.285 274.932 125.871 274.987 128.496C275.267 128.4 275.571 128.4 275.851 128.497C276.131 128.593 276.371 128.78 276.532 129.029C276.843 129.534 277.02 130.111 277.047 130.704C277.154 131.62 277.207 132.541 277.206 133.463C277.206 134.436 277.116 135.486 276.482 136.224C275.663 137.177 274.249 137.277 272.993 137.307C273.598 137.844 273.302 138.925 272.633 139.38C271.964 139.834 271.099 139.843 270.29 139.835C267.172 139.804 263.855 139.716 261.262 137.985C260.238 137.301 259.38 136.391 258.353 135.712C255.837 134.047 252.677 133.967 249.764 134.105C247.135 134.229 245.048 136.414 242.545 137.252Z" fill="#2F2E41"/>
<path d="M241.974 136.562C241.974 136.562 215.965 140.191 212.336 155.917L217.779 155.111L221.61 161.966C221.61 161.966 225.643 146.643 237.538 143.014C249.434 139.385 253.668 138.78 253.668 138.78C253.668 138.78 261.934 140.796 269.394 164.789L273.628 158.942L281.088 160.555C281.088 160.555 275.644 141.804 260.926 136.562L241.974 136.562Z" fill="#2F2E41"/>
</g>
<defs>
<clipPath id="clip0">
<rect width="520" height="404.954" fill="white"/>
</clipPath>
</defs>
</svg>
